<?xml version="1.0" encoding="UTF-8"?>
<svg id="_レイヤー_1" xmlns="http://www.w3.org/2000/svg" version="1.1" viewBox="0 0 397.64 643.89">
  <!-- Generator: Adobe Illustrator 29.5.1, SVG Export Plug-In . SVG Version: 2.1.0 Build 141)  -->
  <defs>
    <style>
      .st0 {
        fill: #ffe9e7;
        stroke: #ff8f86;
      }

      .st0, .st1, .st2, .st3, .st4, .st5, .st6, .st7, .st8, .st9 {
        stroke-width: 2.67px;
      }

      .st0, .st1, .st2, .st3, .st5, .st7, .st9 {
        stroke-linejoin: round;
      }

      .st0, .st2, .st3, .st4, .st5, .st6, .st7, .st8, .st9 {
        fill-rule: evenodd;
      }

      .st1 {
        stroke: #b5b5b8;
      }

      .st1, .st4, .st6, .st8 {
        fill: #fff;
      }

      .st2 {
        fill: #cfc;
        stroke: #00b050;
      }

      .st3 {
        fill: #00b050;
      }

      .st3, .st8 {
        stroke: #060;
      }

      .st4, .st6, .st8 {
        stroke-miterlimit: 8;
      }

      .st4, .st9 {
        stroke: #0071bc;
      }

      .st5 {
        fill: #0071bc;
        stroke: #002c4e;
      }

      .st10 {
        font-family: Meiryo, Meiryo;
        font-size: 14px;
      }

      .st10, .st11, .st12, .st13, .st14 {
        isolation: isolate;
      }

      .st10, .st12 {
        fill: #4d4d4d;
      }

      .st6 {
        stroke: #a80000;
      }

      .st7 {
        fill: #ff5050;
        stroke: #6c1d1d;
      }

      .st11 {
        font-family: SegoeUI, 'Segoe UI';
      }

      .st11, .st13 {
        font-size: 21px;
      }

      .st11, .st14 {
        fill: #333;
      }

      .st12 {
        font-size: 19px;
      }

      .st12, .st13 {
        font-family: Meiryo-Bold, Meiryo;
      }

      .st12, .st13, .st14 {
        font-weight: 700;
      }

      .st13 {
        fill: #f2f2f2;
      }

      .st14 {
        font-family: SegoeUI-Bold, 'Segoe UI';
        font-size: 24px;
      }

      .st9 {
        fill: #e2f1fa;
      }
    </style>
  </defs>
  <path class="st9" d="M10.5,119.59c0-9.5,7.7-17.2,17.2-17.2h343.61c9.5,0,17.2,7.7,17.2,17.2v153.61c0,9.5-7.7,17.2-17.2,17.2H27.7c-9.5,0-17.2-7.7-17.2-17.2V119.59Z"/>
  <path class="st5" d="M10.5,117.16c0-8.71,7.06-15.77,15.77-15.77h346.47c8.71,0,15.77,7.06,15.77,15.77v13.47c0,8.71-7.06,15.77-15.77,15.77H26.27c-8.71,0-15.77-7.06-15.77-15.77v-13.47Z"/>
  <text class="st13" transform="translate(84.14 133.89)"><tspan x="0" y="0">Qwen3 Swallow CPT</tspan></text>
  <text class="st12" transform="translate(99.41 172.89)"><tspan x="0" y="0">継続事前学習</tspan></text>
  <text class="st12" transform="translate(217.58 172.89)"><tspan x="0" y="0">(200BT)</tspan></text>
  <text class="st10" transform="translate(22.31 198.89)"><tspan x="0" y="0">Swallow</tspan></text>
  <text class="st10" transform="translate(82.81 198.89)"><tspan x="0" y="0">Corpus</tspan></text>
  <text class="st10" transform="translate(135.31 198.89)"><tspan x="0" y="0">v</tspan></text>
  <text class="st10" transform="translate(143.31 198.89)"><tspan x="0" y="0">3</tspan></text>
  <text class="st10" transform="translate(151.98 198.89)"><tspan x="0" y="0">.</tspan></text>
  <text class="st10" transform="translate(156.81 198.89)"><tspan x="0" y="0">2</tspan></text>
  <text class="st10" transform="translate(165.48 198.89)"><tspan x="0" y="0">,</tspan></text>
  <text class="st10" transform="translate(175.15 198.89)"><tspan x="0" y="0">English</tspan></text>
  <text class="st10" transform="translate(228.48 198.89)"><tspan x="0" y="0">Nemotron</tspan></text>
  <text class="st10" transform="translate(296.81 198.89)"><tspan x="0" y="0">-</tspan></text>
  <text class="st10" transform="translate(302.98 198.89)"><tspan x="0" y="0">CC</tspan></text>
  <text class="st10" transform="translate(321.65 198.89)"><tspan x="0" y="0">-</tspan></text>
  <text class="st10" transform="translate(327.81 198.89)"><tspan x="0" y="0">HQ</tspan></text>
  <text class="st10" transform="translate(22.31 223.89)"><tspan x="0" y="0">SwallowCode</tspan></text>
  <text class="st10" transform="translate(112.15 223.89)"><tspan x="0" y="0">-</tspan></text>
  <text class="st10" transform="translate(118.31 223.89)"><tspan x="0" y="0">v</tspan></text>
  <text class="st10" transform="translate(126.31 223.89)"><tspan x="0" y="0">2</tspan></text>
  <text class="st10" transform="translate(134.98 223.89)"><tspan x="0" y="0">,</tspan></text>
  <text class="st10" transform="translate(144.65 223.89)"><tspan x="0" y="0">SwallowMath</tspan></text>
  <text class="st10" transform="translate(234.15 223.89)"><tspan x="0" y="0">-</tspan></text>
  <text class="st10" transform="translate(240.31 223.89)"><tspan x="0" y="0">v</tspan></text>
  <text class="st10" transform="translate(248.31 223.89)"><tspan x="0" y="0">2</tspan></text>
  <text class="st10" transform="translate(256.98 223.89)"><tspan x="0" y="0">,</tspan></text>
  <text class="st10" transform="translate(22.31 248.89)"><tspan x="0" y="0">GPT</tspan></text>
  <text class="st10" transform="translate(49.65 248.89)"><tspan x="0" y="0">-</tspan></text>
  <text class="st10" transform="translate(55.81 248.89)"><tspan x="0" y="0">OSS</tspan></text>
  <text class="st10" transform="translate(84.15 248.89)"><tspan x="0" y="0">-</tspan></text>
  <text class="st10" transform="translate(90.31 248.89)"><tspan x="0" y="0">LMSYS</tspan></text>
  <text class="st10" transform="translate(136.31 248.89)"><tspan x="0" y="0">-</tspan></text>
  <text class="st10" transform="translate(142.48 248.89)"><tspan x="0" y="0">Chat</tspan></text>
  <text class="st10" transform="translate(173.98 248.89)"><tspan x="0" y="0">-</tspan></text>
  <text class="st10" transform="translate(180.15 248.89)"><tspan x="0" y="0">1</tspan></text>
  <text class="st10" transform="translate(188.81 248.89)"><tspan x="0" y="0">M</tspan></text>
  <text class="st10" transform="translate(200.48 248.89)"><tspan x="0" y="0">-</tspan></text>
  <text class="st10" transform="translate(206.65 248.89)"><tspan x="0" y="0">Synth,</tspan></text>
  <text class="st10" transform="translate(22.31 273.89)"><tspan x="0" y="0">Swallow</tspan></text>
  <text class="st10" transform="translate(77.98 273.89)"><tspan x="0" y="0">-</tspan></text>
  <text class="st10" transform="translate(84.15 273.89)"><tspan x="0" y="0">Nemotron</tspan></text>
  <text class="st10" transform="translate(152.48 273.89)"><tspan x="0" y="0">-</tspan></text>
  <text class="st10" transform="translate(158.65 273.89)"><tspan x="0" y="0">Post</tspan></text>
  <text class="st10" transform="translate(187.65 273.89)"><tspan x="0" y="0">-</tspan></text>
  <text class="st10" transform="translate(193.81 273.89)"><tspan x="0" y="0">Training</tspan></text>
  <text class="st10" transform="translate(249.48 273.89)"><tspan x="0" y="0">-</tspan></text>
  <text class="st10" transform="translate(255.65 273.89)"><tspan x="0" y="0">Dataset</tspan></text>
  <text class="st10" transform="translate(308.15 273.89)"><tspan x="0" y="0">-</tspan></text>
  <text class="st10" transform="translate(314.31 273.89)"><tspan x="0" y="0">v</tspan></text>
  <text class="st10" transform="translate(322.31 273.89)"><tspan x="0" y="0">1</tspan></text>
  <text class="st10" transform="translate(330.98 273.89)"><tspan x="0" y="0">,</tspan></text>
  <text class="st10" transform="translate(340.65 273.89)"><tspan x="0" y="0">...</tspan></text>
  <path class="st2" d="M10.5,361.19c0-12.04,9.76-21.8,21.8-21.8h334.41c12.04,0,21.8,9.76,21.8,21.8v94.41c0,12.04-9.76,21.8-21.8,21.8H32.3c-12.04,0-21.8-9.76-21.8-21.8v-94.41Z"/>
  <path class="st3" d="M10.5,355.16c0-8.71,7.06-15.77,15.77-15.77h346.47c8.71,0,15.77,7.06,15.77,15.77v13.47c0,8.71-7.06,15.77-15.77,15.77H26.27c-8.71,0-15.77-7.06-15.77-15.77v-13.47Z"/>
  <text class="st13" transform="translate(84.94 370.89)"><tspan x="0" y="0">Qwen3 Swallow SFT</tspan></text>
  <text class="st12" transform="translate(38.28 410.89)"><tspan x="0" y="0">教師ありファインチューニング</tspan></text>
  <text class="st12" transform="translate(305.78 410.89)"><tspan x="0" y="0">(SFT)</tspan></text>
  <text class="st10" transform="translate(23.04 436.89)"><tspan x="0" y="0">GPT</tspan></text>
  <text class="st10" transform="translate(50.38 436.89)"><tspan x="0" y="0">-</tspan></text>
  <text class="st10" transform="translate(56.54 436.89)"><tspan x="0" y="0">OSS</tspan></text>
  <text class="st10" transform="translate(84.88 436.89)"><tspan x="0" y="0">-</tspan></text>
  <text class="st10" transform="translate(91.04 436.89)"><tspan x="0" y="0">LMSYS</tspan></text>
  <text class="st10" transform="translate(137.04 436.89)"><tspan x="0" y="0">-</tspan></text>
  <text class="st10" transform="translate(143.21 436.89)"><tspan x="0" y="0">Chat</tspan></text>
  <text class="st10" transform="translate(174.71 436.89)"><tspan x="0" y="0">-</tspan></text>
  <text class="st10" transform="translate(180.88 436.89)"><tspan x="0" y="0">1</tspan></text>
  <text class="st10" transform="translate(189.54 436.89)"><tspan x="0" y="0">M</tspan></text>
  <text class="st10" transform="translate(201.21 436.89)"><tspan x="0" y="0">-</tspan></text>
  <text class="st10" transform="translate(207.38 436.89)"><tspan x="0" y="0">Synth,</tspan></text>
  <text class="st10" transform="translate(23.04 461.89)"><tspan x="0" y="0">Swallow</tspan></text>
  <text class="st10" transform="translate(78.71 461.89)"><tspan x="0" y="0">-</tspan></text>
  <text class="st10" transform="translate(84.88 461.89)"><tspan x="0" y="0">Nemotron</tspan></text>
  <text class="st10" transform="translate(153.21 461.89)"><tspan x="0" y="0">-</tspan></text>
  <text class="st10" transform="translate(159.38 461.89)"><tspan x="0" y="0">Post</tspan></text>
  <text class="st10" transform="translate(188.38 461.89)"><tspan x="0" y="0">-</tspan></text>
  <text class="st10" transform="translate(194.54 461.89)"><tspan x="0" y="0">Training</tspan></text>
  <text class="st10" transform="translate(250.21 461.89)"><tspan x="0" y="0">-</tspan></text>
  <text class="st10" transform="translate(256.38 461.89)"><tspan x="0" y="0">Dataset</tspan></text>
  <text class="st10" transform="translate(308.88 461.89)"><tspan x="0" y="0">-</tspan></text>
  <text class="st10" transform="translate(315.04 461.89)"><tspan x="0" y="0">v</tspan></text>
  <text class="st10" transform="translate(323.04 461.89)"><tspan x="0" y="0">1</tspan></text>
  <path class="st0" d="M10.5,547.05c0-13.07,10.59-23.66,23.66-23.66h330.68c13.07,0,23.66,10.59,23.66,23.66v64.68c0,13.07-10.59,23.66-23.66,23.66H34.16c-13.07,0-23.66-10.59-23.66-23.66v-64.68Z"/>
  <path class="st7" d="M10.5,539.16c0-8.71,7.06-15.77,15.77-15.77h346.47c8.71,0,15.77,7.06,15.77,15.77v13.47c0,8.71-7.06,15.77-15.77,15.77H26.27c-8.71,0-15.77-7.06-15.77-15.77v-13.47Z"/>
  <text class="st13" transform="translate(91.62 555.89)"><tspan x="0" y="0">Qwen3 Swallow RL</tspan></text>
  <text class="st12" transform="translate(30.76 596.89)"><tspan x="0" y="0">検証可能な報酬による強化学習</tspan></text>
  <text class="st12" transform="translate(298.26 596.89)"><tspan x="0" y="0">(RLVR)</tspan></text>
  <text class="st10" transform="translate(23.1 622.89)"><tspan x="0" y="0">Dolci</tspan></text>
  <text class="st10" transform="translate(56.1 622.89)"><tspan x="0" y="0">-</tspan></text>
  <text class="st10" transform="translate(62.27 622.89)"><tspan x="0" y="0">Think</tspan></text>
  <text class="st10" transform="translate(99.6 622.89)"><tspan x="0" y="0">-</tspan></text>
  <text class="st10" transform="translate(105.77 622.89)"><tspan x="0" y="0">RL</tspan></text>
  <text class="st10" transform="translate(123.1 622.89)"><tspan x="0" y="0">-</tspan></text>
  <text class="st10" transform="translate(129.27 622.89)"><tspan x="0" y="0">7</tspan></text>
  <text class="st10" transform="translate(137.94 622.89)"><tspan x="0" y="0">B</tspan></text>
  <text class="st10" transform="translate(152.27 622.89)"><tspan x="0" y="0">数学サブセット</tspan></text>
  <path class="st4" d="M180.5,80.89h8.25v-19.5h16.5v19.5h8.25l-16.5,16.5-16.5-16.5Z"/>
  <path class="st8" d="M180.5,316.89h8.25v-19.5h16.5v19.5h8.25l-16.5,16.5-16.5-16.5Z"/>
  <path class="st6" d="M180.5,501.89h8.25v-19.5h16.5v19.5h8.25l-16.5,16.5-16.5-16.5Z"/>
  <rect class="st1" x="10.5" y="8.39" width="378" height="45"/>
  <text class="st14" transform="translate(16.76 39.89)"><tspan x="0" y="0">Qwen3</tspan></text>
  <text class="st11" transform="translate(101.97 39.89)"><tspan x="0" y="0">(8B Base, 30B</tspan></text>
  <text class="st11" transform="translate(226.81 39.89)"><tspan x="0" y="0">-</tspan></text>
  <text class="st11" transform="translate(235.31 39.89)"><tspan x="0" y="0">A3B</tspan></text>
  <text class="st11" transform="translate(272.81 39.89)"><tspan x="0" y="0">-</tspan></text>
  <text class="st11" transform="translate(281.31 39.89)"><tspan x="0" y="0">Base, 32B)</tspan></text>
</svg>